<svg width="102" height="48" viewBox="0 0 102 48" fill="none" xmlns="http://www.w3.org/2000/svg">
<path fill-rule="evenodd" clip-rule="evenodd" d="M0.108887 15.75V15.7503V36.0001H20.356H20.3588V24.4377H18.1088V33.7502H2.35878V18.0001H11.6715V15.75H0.108887Z" fill="#F50514"/>
<path fill-rule="evenodd" clip-rule="evenodd" d="M18.1067 12V15.7499H14.3567V18.0001H18.1067V21.75H20.3568V18.0001H24.1068V15.7499H20.3568V12H18.1067Z" fill="#F50514"/>
<path fill-rule="evenodd" clip-rule="evenodd" d="M11.6728 30.7501V20.875H9.67274C9.67274 21.5554 9.44348 22.0669 9.09628 22.3713C8.73423 22.675 8.18469 22.8125 7.54778 22.8125H7.29773V24.4375H9.42269V30.7501H11.6728Z" fill="#F50514"/>
<path fill-rule="evenodd" clip-rule="evenodd" d="M34.9341 25.663C34.9341 23.3847 33.9115 21.6163 31.8188 21.6163C29.7259 21.6163 28.6556 23.3847 28.6556 25.663C28.6556 27.9254 29.7259 29.6938 31.8188 29.6938C33.9115 29.6938 34.9341 27.9254 34.9341 25.663ZM26.293 25.663C26.293 22.2536 28.4339 19.7207 31.8045 19.7207C35.1756 19.7207 37.3004 22.2536 37.3004 25.663C37.3004 29.0723 35.1756 31.5894 31.8045 31.5894C28.4339 31.5894 26.293 29.0723 26.293 25.663Z" fill="#F50514"/>
<path fill-rule="evenodd" clip-rule="evenodd" d="M39.2794 19.9443H41.6279L45.4302 26.301C45.7977 26.9221 46.2289 27.8939 46.2289 27.8939H46.261C46.261 27.8939 46.1971 26.7151 46.1971 25.9186V19.9443H48.4814V31.3352H46.245L42.3466 25.0424C41.9794 24.4368 41.532 23.4652 41.532 23.4652H41.5C41.5 23.4652 41.5641 24.6599 41.5641 25.4566V31.3352H39.2794V19.9443Z" fill="#F50514"/>
<path fill-rule="evenodd" clip-rule="evenodd" d="M51.1154 19.9443H59.5186V21.8877H53.4319V24.4368H58.7678V26.3326H53.4319V29.4075H59.5667V31.3352H51.1154V19.9443Z" fill="#F50514"/>
<path fill-rule="evenodd" clip-rule="evenodd" d="M64.2019 25.3292H66.5981C67.8123 25.3292 68.4512 24.66 68.4512 23.6245C68.4512 22.5572 67.7804 21.9516 66.6301 21.9516H64.2019V25.3292ZM61.8029 19.9443H66.8196C68.1452 19.9443 69.1355 20.3265 69.8068 21.012C70.4458 21.665 70.8292 22.5571 70.8292 23.6085C70.8292 25.7589 69.4074 27.2089 67.0112 27.2089H64.1994V31.3352H61.8029V19.9443Z" fill="#F50514"/>
<path fill-rule="evenodd" clip-rule="evenodd" d="M72.5415 19.9443H74.8578V29.4075H80.2258V31.3352H72.5415V19.9443Z" fill="#F50514"/>
<path fill-rule="evenodd" clip-rule="evenodd" d="M81.4541 27.6711V19.9443H83.7707V27.6711C83.7707 28.8497 84.3618 29.6787 85.9116 29.6787C87.3815 29.6787 88.0682 28.8184 88.0682 27.6396V19.9443H90.385V27.6711C90.385 30.1088 88.883 31.5267 85.9597 31.5267C83.0041 31.5267 81.4541 30.1403 81.4541 27.6711Z" fill="#F50514"/>
<path fill-rule="evenodd" clip-rule="evenodd" d="M92.0138 27.8144H94.2823C94.4422 29.1846 95.2249 29.7261 96.8544 29.7261C98.0366 29.7261 99.0752 29.3121 99.0752 28.2602C99.0752 27.1455 97.9889 26.9222 96.2473 26.524C94.2023 26.0619 92.3331 25.5202 92.3331 23.1466C92.3331 20.9005 94.1705 19.7373 96.7105 19.7373C99.2831 19.7373 100.944 20.9957 101.12 23.2899H98.8994C98.7718 22.1426 97.877 21.5692 96.6947 21.5692C95.4486 21.5692 94.6339 22.095 94.6339 22.9076C94.6339 23.8314 95.4326 24.1024 97.1262 24.4688C99.4749 24.9787 101.392 25.5361 101.392 27.9899C101.392 30.2997 99.5224 31.5901 96.9505 31.5901C93.851 31.5901 92.0936 30.22 92.0138 27.8144Z" fill="#F50514"/>
</svg>
